<svg width="17" height="17" viewBox="0 0 17 17" fill="none" xmlns="http://www.w3.org/2000/svg">
<path fill-rule="evenodd" clip-rule="evenodd" d="M15.6092 1.31188C15.1922 0.8967 14.5395 0.895953 14.1217 1.31017L8.50001 6.88252L2.87833 1.31017C2.46044 0.895955 1.80788 0.896702 1.39085 1.31188L1.33861 1.36388C0.886453 1.81402 0.887236 2.5715 1.34033 3.02062L6.86821 8.5L1.34033 13.9794C0.887238 14.4285 0.886455 15.186 1.33861 15.6361L1.39085 15.6881C1.80788 16.1033 2.46045 16.104 2.87833 15.6898L8.50001 10.1175L14.1217 15.6898C14.5395 16.104 15.1922 16.1033 15.6092 15.6881L15.6614 15.6361C16.1136 15.186 16.1127 14.4285 15.6597 13.9794L10.1318 8.5L15.6597 3.02062C16.1127 2.5715 16.1136 1.81402 15.6614 1.36388L15.6092 1.31188Z" fill="black" stroke="black"/>
</svg>
