<svg width="24" height="24" viewBox="0 0 24 24" fill="none" xmlns="http://www.w3.org/2000/svg">
<g clip-path="url(#clip0_1_100)">
<path d="M14.25 2.25C14.25 1.65326 14.0129 1.08097 13.591 0.65901C13.169 0.237053 12.5967 0 12 0C11.4033 0 10.831 0.237053 10.409 0.65901C9.98705 1.08097 9.75 1.65326 9.75 2.25C9.75 2.84674 9.98705 3.41903 10.409 3.84099C10.831 4.26295 11.4033 4.5 12 4.5C12.5967 4.5 13.169 4.26295 13.591 3.84099C14.0129 3.41903 14.25 2.84674 14.25 2.25ZM14.25 21.75C14.25 21.1533 14.0129 20.581 13.591 20.159C13.169 19.7371 12.5967 19.5 12 19.5C11.4033 19.5 10.831 19.7371 10.409 20.159C9.98705 20.581 9.75 21.1533 9.75 21.75C9.75 22.3467 9.98705 22.919 10.409 23.341C10.831 23.7629 11.4033 24 12 24C12.5967 24 13.169 23.7629 13.591 23.341C14.0129 22.919 14.25 22.3467 14.25 21.75ZM2.25 14.25C2.84674 14.25 3.41903 14.0129 3.84099 13.591C4.26295 13.169 4.5 12.5967 4.5 12C4.5 11.4033 4.26295 10.831 3.84099 10.409C3.41903 9.98705 2.84674 9.75 2.25 9.75C1.65326 9.75 1.08097 9.98705 0.65901 10.409C0.237053 10.831 0 11.4033 0 12C0 12.5967 0.237053 13.169 0.65901 13.591C1.08097 14.0129 1.65326 14.25 2.25 14.25ZM24 12C24 11.4033 23.7629 10.831 23.341 10.409C22.919 9.98705 22.3467 9.75 21.75 9.75C21.1533 9.75 20.581 9.98705 20.159 10.409C19.7371 10.831 19.5 11.4033 19.5 12C19.5 12.5967 19.7371 13.169 20.159 13.591C20.581 14.0129 21.1533 14.25 21.75 14.25C22.3467 14.25 22.919 14.0129 23.341 13.591C23.7629 13.169 24 12.5967 24 12ZM6.69844 20.4844C6.90742 20.2754 7.0732 20.0273 7.1863 19.7542C7.29941 19.4812 7.35762 19.1885 7.35762 18.893C7.35762 18.5974 7.29941 18.3048 7.1863 18.0317C7.0732 17.7587 6.90742 17.5105 6.69844 17.3016C6.48945 17.0926 6.24135 16.9268 5.96829 16.8137C5.69524 16.7006 5.40258 16.6424 5.10703 16.6424C4.51014 16.6424 3.93769 16.8795 3.51562 17.3016C3.09356 17.7236 2.85644 18.2961 2.85644 18.893C2.85644 19.4899 3.09356 20.0623 3.51562 20.4844C3.93769 20.9064 4.51014 21.1436 5.10703 21.1436C5.70392 21.1436 6.27637 20.9064 6.69844 20.4844ZM6.69844 6.69375C6.91781 6.4872 7.09346 6.23869 7.21496 5.96296C7.33647 5.68724 7.40136 5.38992 7.40578 5.08864C7.4102 4.78736 7.35406 4.48827 7.2407 4.2091C7.12733 3.92992 6.95905 3.67637 6.74584 3.46347C6.53262 3.25057 6.27882 3.08266 5.99948 2.96971C5.72014 2.85675 5.42096 2.80106 5.11969 2.80592C4.81842 2.81079 4.5212 2.87611 4.24565 2.99802C3.97011 3.11994 3.72186 3.29595 3.51562 3.51562C3.09356 3.93769 2.85644 4.51014 2.85644 5.10703C2.85644 5.70392 3.09356 6.27637 3.51562 6.69844C3.93769 7.1205 4.51014 7.35762 5.10703 7.35762C5.70392 7.35762 6.27637 7.1205 6.69844 6.69844V6.69375ZM17.3016 20.4844C17.5105 20.6934 17.7587 20.8591 18.0317 20.9722C18.3048 21.0853 18.5974 21.1436 18.893 21.1436C19.1885 21.1436 19.4812 21.0853 19.7542 20.9722C20.0273 20.8591 20.2754 20.6934 20.4844 20.4844C20.6934 20.2754 20.8591 20.0273 20.9722 19.7542C21.0853 19.4812 21.1436 19.1885 21.1436 18.893C21.1436 18.5974 21.0853 18.3048 20.9722 18.0317C20.8591 17.7587 20.6934 17.5105 20.4844 17.3016C20.2754 17.0926 20.0273 16.9268 19.7542 16.8137C19.4812 16.7006 19.1885 16.6424 18.893 16.6424C18.5974 16.6424 18.3048 16.7006 18.0317 16.8137C17.7587 16.9268 17.5105 17.0926 17.3016 17.3016C17.0926 17.5105 16.9268 17.7587 16.8137 18.0317C16.7006 18.3048 16.6424 18.5974 16.6424 18.893C16.6424 19.1885 16.7006 19.4812 16.8137 19.7542C16.9268 20.0273 17.0926 20.2754 17.3016 20.4844Z" fill="#713FFF"/>
</g>
<defs>
<clipPath id="clip0_1_100">
<rect width="24" height="24" fill="white"/>
</clipPath>
</defs>
</svg>
